<svg width="8" height="16" viewBox="0 0 8 16" fill="none" xmlns="http://www.w3.org/2000/svg">
<path d="M4.82865 15.2H2.25892C1.97779 15.2 1.74907 14.9713 1.74907 14.6902V8.73758H0.520348C0.23921 8.73758 0.010498 8.50884 0.010498 8.22767V5.95998C0.010498 5.67885 0.239239 5.45013 0.520348 5.45013H1.82453V4.07651C1.78144 3.79869 1.68349 2.67192 2.70726 1.7299C3.6452 0.867081 4.82744 0.800003 5.16741 0.800003C5.20946 0.800003 5.23947 0.800931 5.25674 0.801662H7.05857C7.3397 0.801662 7.56842 1.03037 7.56842 1.31151V3.41996C7.56842 3.7011 7.33968 3.92981 7.05857 3.92981H5.74642C5.40355 3.92981 5.33855 4.0589 5.33855 4.29712V5.45016H7.05857C7.20375 5.45016 7.34243 5.51232 7.4391 5.62068C7.53576 5.7291 7.58164 5.87406 7.56501 6.01837L7.30039 8.3154C7.27077 8.57282 7.05303 8.76697 6.79388 8.76697H5.33844V14.6901C5.3385 14.9713 5.10976 15.2 4.82865 15.2ZM2.32274 14.6263H4.76478V8.48015C4.76478 8.32172 4.89322 8.1933 5.05162 8.1933H6.73699L6.9869 6.02394H5.05171C4.89331 6.02394 4.76486 5.89552 4.76486 5.73709V4.29721C4.76486 3.70799 5.13181 3.3562 5.74645 3.3562H6.99478V1.37538H5.2503C5.24557 1.37538 5.24085 1.37527 5.23612 1.37505C5.23174 1.37482 5.20774 1.37375 5.16744 1.37375C4.87995 1.37375 3.88086 1.42989 3.09573 2.15217C2.25569 2.9251 2.36377 3.83044 2.39401 4.00412C2.39682 4.02034 2.39823 4.0368 2.39823 4.05325V5.73701C2.39823 5.89544 2.26978 6.02386 2.11138 6.02386H0.584164V8.16389H2.03589C2.19429 8.16389 2.32274 8.2923 2.32274 8.45073V14.6263Z" fill="#23283B"/>
<path d="M2.9002 11.1841C2.7418 11.1841 2.61336 11.0556 2.61336 10.8972V10.7538C2.61336 10.5954 2.7418 10.4669 2.9002 10.4669C3.0586 10.4669 3.18705 10.5954 3.18705 10.7538V10.8972C3.18708 11.0556 3.0586 11.1841 2.9002 11.1841Z" fill="#23283B"/>
<path d="M2.9002 14.2821C2.7418 14.2821 2.61336 14.1537 2.61336 13.9952V11.8152C2.61336 11.6567 2.7418 11.5283 2.9002 11.5283C3.0586 11.5283 3.18705 11.6567 3.18705 11.8152V13.9952C3.18708 14.1536 3.0586 14.2821 2.9002 14.2821Z" fill="#23283B"/>
</svg>
