<svg width="16" height="16" viewBox="0 0 16 16" fill="none" xmlns="http://www.w3.org/2000/svg">
<path d="M10.9129 15.2181H5.08708C2.72316 15.2181 0.800003 13.2949 0.800003 10.931V5.06904C0.800003 2.7051 2.72316 0.781937 5.08708 0.781937H10.9129C13.2768 0.781937 15.2 2.7051 15.2 5.06904V10.931C15.2 13.2949 13.2768 15.2181 10.9129 15.2181ZM5.08708 1.35707C3.04028 1.35707 1.37514 3.02221 1.37514 5.06901V10.931C1.37514 12.9778 3.04028 14.6429 5.08708 14.6429H10.9129C12.9597 14.6429 14.6248 12.9777 14.6248 10.931V5.06904C14.6248 3.02224 12.9597 1.3571 10.9129 1.3571H5.08708V1.35707ZM10.9129 13.5745H5.08708C3.62943 13.5745 2.44358 12.3886 2.44358 10.931V5.06904C2.44358 3.61139 3.62943 2.42557 5.08708 2.42557H10.9129C12.3706 2.42557 13.5564 3.61142 13.5564 5.06904V10.931C13.5564 12.3886 12.3706 13.5745 10.9129 13.5745ZM5.08708 3.00067C3.94657 3.00067 3.01871 3.92853 3.01871 5.06901V10.931C3.01871 12.0715 3.94657 12.9993 5.08708 12.9993H10.9129C12.0534 12.9993 12.9813 12.0715 12.9813 10.931V5.06904C12.9813 3.92856 12.0534 3.0007 10.9129 3.0007H5.08708V3.00067Z" fill="#23283B"/>
<path d="M7.99997 11.7167C5.95052 11.7167 4.2832 10.0494 4.2832 7.99998C4.2832 5.95053 5.95055 4.28319 7.99997 4.28319C10.0494 4.28319 11.7167 5.95053 11.7167 7.99998C11.7167 10.0494 10.0494 11.7167 7.99997 11.7167ZM7.99997 4.85835C6.26769 4.85835 4.85836 6.26768 4.85836 7.99998C4.85836 9.73226 6.26769 11.1416 7.99997 11.1416C9.73225 11.1416 11.1416 9.73226 11.1416 7.99998C11.1416 6.26768 9.73227 4.85835 7.99997 4.85835ZM7.99997 10.1135C6.83459 10.1135 5.88646 9.16536 5.88646 7.99998C5.88646 6.8346 6.83459 5.88647 7.99997 5.88647C9.16535 5.88647 10.1135 6.8346 10.1135 7.99998C10.1135 9.16536 9.16537 10.1135 7.99997 10.1135ZM7.99997 6.4616C7.15171 6.4616 6.46159 7.15172 6.46159 7.99998C6.46159 8.84824 7.15171 9.53836 7.99997 9.53836C8.84823 9.53836 9.53835 8.84824 9.53835 7.99998C9.53835 7.15169 8.84823 6.4616 7.99997 6.4616Z" fill="#23283B"/>
<path d="M11.5099 5.38307C11.0175 5.38307 10.6169 4.9825 10.6169 4.49007C10.6169 3.99763 11.0175 3.59703 11.5099 3.59703C12.0023 3.59703 12.4029 3.99766 12.4029 4.49007C12.4029 4.98247 12.0023 5.38307 11.5099 5.38307ZM11.5099 4.17219C11.3346 4.17219 11.192 4.31477 11.192 4.49007C11.192 4.66533 11.3346 4.80791 11.5099 4.80791C11.6852 4.80791 11.8277 4.66533 11.8277 4.49007C11.8278 4.3148 11.6852 4.17219 11.5099 4.17219Z" fill="#23283B"/>
<path d="M7.53983 14.4129H4.83664C4.67781 14.4129 4.54907 14.2841 4.54907 14.1253C4.54907 13.9665 4.67781 13.8377 4.83664 13.8377H7.53983C7.69865 13.8377 7.8274 13.9665 7.8274 14.1253C7.8274 14.2841 7.69865 14.4129 7.53983 14.4129Z" fill="#23283B"/>
<path d="M8.63261 14.4129H8.46005C8.30125 14.4129 8.17249 14.2841 8.17249 14.1253C8.17249 13.9665 8.30125 13.8377 8.46005 13.8377H8.63261C8.79141 13.8377 8.92017 13.9665 8.92017 14.1253C8.92017 14.2841 8.79143 14.4129 8.63261 14.4129Z" fill="#23283B"/>
</svg>
