<svg width="16" height="10" viewBox="0 0 16 10" fill="none" xmlns="http://www.w3.org/2000/svg">
<path d="M8.21037 9.66537C7.07511 9.6654 6.09654 9.42212 5.22885 8.92571C4.403 8.45317 3.68716 7.78436 2.97596 6.82088C1.96596 5.45231 1.08077 3.87527 0.105884 1.70748C-0.0304913 1.40391 -0.0351476 1.14844 0.0920094 0.948127C0.218979 0.748126 0.451324 0.643844 0.782607 0.638126C1.48499 0.624469 2.20546 0.624157 2.98446 0.637126C3.39334 0.643126 3.71228 0.874971 3.88194 1.29007C4.29391 2.30307 4.76819 3.18223 5.33198 3.97827C5.47313 4.17746 5.6191 4.38352 5.81279 4.51602L5.81373 4.51665C5.85032 4.54165 5.90057 4.52687 5.91789 4.48612L5.91845 4.48477C5.97223 4.35759 6.00551 4.20465 6.02342 4.00343C6.08764 3.25395 6.07695 2.63492 5.98973 2.05626C5.94557 1.75841 5.80307 1.60263 5.52745 1.55035C5.44917 1.53554 5.21082 1.49038 5.13082 1.26416C5.05176 1.0406 5.20691 0.857721 5.26535 0.788845C5.46717 0.552594 5.71885 0.334686 6.19467 0.334686H8.7239C8.7435 0.334686 8.76334 0.336374 8.78259 0.340124C9.41966 0.464656 9.52625 0.867096 9.58085 1.26854C9.58275 1.28269 9.58375 1.29697 9.58375 1.31125L9.58591 4.12074C9.58591 4.1238 9.58588 4.12687 9.58578 4.12996C9.58416 4.1883 9.59997 4.27143 9.62403 4.34774C9.65747 4.45365 9.79319 4.48387 9.86913 4.40277C9.86953 4.40234 9.86997 4.40187 9.87041 4.40143L9.89766 4.37243C10.5109 3.72158 10.934 2.94042 11.267 2.2622C11.441 1.91088 11.5912 1.54054 11.7185 1.22097C11.8774 0.820846 12.169 0.621563 12.5894 0.628594L15.0208 0.630751C15.1046 0.630751 15.1946 0.632094 15.2894 0.648344C15.4836 0.681438 15.7592 0.753626 15.9078 0.997159C16.0564 1.24066 15.9948 1.51804 15.9354 1.70548C15.7278 2.35923 15.3402 2.89567 14.9653 3.41452L14.9222 3.47421C14.7301 3.74005 14.5297 4.0044 14.3358 4.26002C14.1177 4.54759 13.8922 4.84496 13.6807 5.14184C13.5392 5.33922 13.4777 5.47275 13.4867 5.56275C13.4959 5.65431 13.5835 5.77828 13.7626 5.95294C13.7626 5.95297 13.7627 5.953 13.7627 5.95303C13.8958 6.083 14.034 6.21391 14.1677 6.3405C14.548 6.70066 14.9412 7.07307 15.2892 7.49017C15.4809 7.72123 15.6989 8.00045 15.8668 8.32483C16.0278 8.63689 16.0302 8.98883 15.8733 9.26671C15.743 9.49746 15.521 9.63955 15.2644 9.65665C15.2573 9.65712 15.2503 9.65734 15.2432 9.65734C15.2432 9.65734 15.2431 9.65734 15.2431 9.65734L13.0179 9.6563C12.3986 9.7039 11.8387 9.4768 11.353 8.98168C11.1382 8.76296 10.9332 8.53361 10.735 8.3118C10.6419 8.20764 10.5456 8.09992 10.4504 7.99564C10.3564 7.89304 10.2421 7.77617 10.1094 7.68998C10.0368 7.64285 9.97154 7.62032 9.93472 7.62948C9.90007 7.6382 9.85616 7.68582 9.81722 7.75686C9.678 8.01061 9.63788 8.30267 9.62044 8.6632C9.58938 9.34536 9.30438 9.62396 8.60397 9.65587C8.47084 9.66221 8.33949 9.66537 8.21037 9.66537ZM0.638919 1.29541C0.642013 1.32113 0.652731 1.36916 0.687325 1.44613C1.6428 3.57083 2.50684 5.11171 3.4889 6.44232C4.14563 7.33207 4.79913 7.94539 5.54545 8.37239C6.40336 8.86324 7.39405 9.07465 8.57456 9.01914C8.82022 9.00793 8.89384 8.97111 8.91587 8.95018C8.93272 8.93421 8.97297 8.87136 8.98381 8.63333C9.00262 8.24417 9.04887 7.83226 9.25834 7.45039C9.42006 7.15526 9.63072 7.04873 9.77897 7.01135C9.92875 6.97357 10.168 6.96795 10.4566 7.15529C10.6494 7.28048 10.7994 7.43282 10.9208 7.56539C11.0186 7.67254 11.1161 7.78157 11.2103 7.88695C11.4036 8.10326 11.6035 8.32692 11.8079 8.53511C12.1682 8.9023 12.5407 9.05636 12.979 9.01986C12.9877 9.01915 12.9965 9.01877 13.0052 9.01877C13.0053 9.01877 13.0054 9.01877 13.0055 9.01877L15.2302 9.0198C15.2497 9.01746 15.2875 9.00752 15.3182 8.95317C15.3557 8.88674 15.3736 8.75892 15.3005 8.61733C15.1606 8.34708 14.9686 8.10189 14.7992 7.89767C14.4757 7.50995 14.1132 7.1666 13.7294 6.8031C13.594 6.67491 13.4541 6.54235 13.3175 6.40907C12.7398 5.84556 12.6991 5.4169 13.1621 4.77106C13.3786 4.46715 13.607 4.16596 13.8279 3.87468C14.0196 3.62189 14.2178 3.36055 14.4055 3.1008L14.4487 3.04102C14.8099 2.54095 15.1512 2.06863 15.3278 1.51272C15.3629 1.40185 15.3633 1.34872 15.3616 1.33025C15.3459 1.32032 15.2981 1.29625 15.1821 1.27647C15.1363 1.26863 15.0772 1.26797 15.0205 1.26797L12.586 1.26582C12.584 1.26582 12.5821 1.26582 12.5801 1.26575C12.4368 1.26272 12.3767 1.2901 12.3107 1.45632C12.1788 1.78776 12.0228 2.17226 11.8386 2.54398C11.4852 3.26383 11.0329 4.0969 10.3611 4.80987L10.3357 4.83693C10.1929 4.9894 9.92697 5.27318 9.525 5.14181C9.52135 5.14059 9.51769 5.13934 9.51406 5.13803C9.07253 4.97578 8.94284 4.38396 8.94844 4.11708L8.94631 1.3335C8.93215 1.2341 8.90906 1.10691 8.86862 1.0531C8.85909 1.04044 8.83128 1.00344 8.69084 0.97194H6.19473C6.09295 0.97194 6.01961 0.986065 5.95454 1.01994C6.32089 1.18613 6.55345 1.51147 6.62023 1.96188C6.71499 2.59054 6.72717 3.25708 6.65852 4.05871C6.63449 4.3289 6.58595 4.54274 6.50567 4.73265C6.38123 5.02728 6.19648 5.13568 6.06336 5.17475C5.93029 5.21375 5.71642 5.22237 5.45279 5.04187C5.16504 4.84496 4.96919 4.56862 4.81188 4.34655C4.21941 3.51005 3.72219 2.58895 3.29172 1.53054C3.20059 1.30757 3.08025 1.27585 2.97456 1.27429C2.20258 1.26141 1.48964 1.26175 0.794389 1.27525C0.710888 1.27688 0.663294 1.28741 0.638919 1.29541Z" fill="#23283B"/>
<path d="M2.04026 2.76362C1.92385 2.76362 1.81163 2.69962 1.75554 2.58862C1.70785 2.49428 1.6606 2.39965 1.61376 2.30484C1.53579 2.14702 1.60054 1.95586 1.75835 1.87793C1.91626 1.79993 2.10729 1.86474 2.18526 2.02252C2.23123 2.11559 2.27764 2.20846 2.32445 2.30109C2.40382 2.45818 2.34086 2.64987 2.18376 2.72931C2.13767 2.75259 2.08857 2.76362 2.04026 2.76362Z" fill="#23283B"/>
<path d="M4.06742 6.11559C3.9697 6.11559 3.87323 6.07081 3.81073 5.98612C3.27142 5.2554 2.76776 4.46336 2.271 3.5647C2.18585 3.41067 2.24172 3.21673 2.39575 3.13158C2.54979 3.04645 2.74373 3.10226 2.82888 3.25633C3.31201 4.13036 3.80095 4.89949 4.32358 5.60756C4.42808 5.74918 4.39802 5.94874 4.25642 6.05324C4.19951 6.09537 4.13317 6.11559 4.06742 6.11559Z" fill="#23283B"/>
</svg>
